<svg width="100" height="100" viewBox="0 0 100 100" fill="none" xmlns="http://www.w3.org/2000/svg">
<circle cx="49.9993" cy="37.5" r="7.83333" stroke="white" stroke-linecap="round"/>
<path d="M64.0495 33.5834C65.0882 31.7842 66.7992 30.4713 68.8059 29.9336C70.8127 29.3959 72.9508 29.6774 74.75 30.7162C76.5492 31.7549 77.862 33.4659 78.3998 35.4726C78.9375 37.4793 78.656 39.6175 77.6172 41.4167C76.5784 43.2159 74.8675 44.5287 72.8607 45.0664C70.854 45.6041 68.7159 45.3227 66.9167 44.2839C65.1175 43.2451 63.8046 41.5342 63.2669 39.5274C62.7292 37.5207 63.0107 35.3825 64.0495 33.5834L64.0495 33.5834Z" stroke="white"/>
<path d="M22.3835 33.5834C23.4222 31.7842 25.1332 30.4713 27.1399 29.9336C29.1466 29.3959 31.2848 29.6774 33.084 30.7162C34.8832 31.7549 36.196 33.4659 36.7337 35.4726C37.2714 37.4793 36.9899 39.6175 35.9512 41.4167C34.9124 43.2159 33.2015 44.5287 31.1947 45.0664C29.188 45.6041 27.0498 45.3227 25.2507 44.2839C23.4515 43.2451 22.1386 41.5342 21.6009 39.5274C21.0632 37.5207 21.3447 35.3825 22.3835 33.5834L22.3835 33.5834Z" stroke="white"/>
<path d="M85.3621 67.7583L84.864 67.8017L84.864 67.8017L85.3621 67.7583ZM58.75 54.9392L58.4593 54.5323L57.927 54.9127L58.4338 55.3265L58.75 54.9392ZM64.5357 67.7579L65.0342 67.7199L65.0342 67.7199L64.5357 67.7579ZM84.4165 68.25H63.5833V69.25H84.4165V68.25ZM84.864 67.8017C84.8842 68.0335 84.7025 68.25 84.4165 68.25V69.25C85.2351 69.25 85.9359 68.5836 85.8602 67.715L84.864 67.8017ZM68.75 52.5833C75.6754 52.5833 79.5972 55.5183 81.847 58.8553C84.1176 62.2232 84.7108 66.0432 84.864 67.8017L85.8602 67.715C85.701 65.8868 85.0851 61.8692 82.6762 58.2963C80.2465 54.6925 76.0185 51.5833 68.75 51.5833V52.5833ZM59.0407 55.346C61.3284 53.7116 64.4563 52.5833 68.75 52.5833V51.5833C64.2706 51.5833 60.9344 52.7641 58.4593 54.5323L59.0407 55.346ZM58.4338 55.3265C60.6674 57.1501 62.0244 59.6427 62.8466 62.0095C63.6682 64.3745 63.9446 66.5822 64.0371 67.7959L65.0342 67.7199C64.9378 66.455 64.6506 64.1551 63.7912 61.6813C62.9324 59.2092 61.4911 56.5317 59.0662 54.5518L58.4338 55.3265ZM64.0371 67.7959C64.0552 68.0329 63.8685 68.25 63.5833 68.25V69.25C64.4027 69.25 65.1001 68.5843 65.0342 67.7199L64.0371 67.7959Z" fill="white"/>
<path d="M41.2504 54.9391L41.5667 55.3264L42.0735 54.9126L41.5411 54.5323L41.2504 54.9391ZM14.6383 67.7583L14.1402 67.7149L14.1402 67.7149L14.6383 67.7583ZM35.4647 67.7579L35.9633 67.7959L35.9633 67.7959L35.4647 67.7579ZM31.2506 52.5833C35.5442 52.5833 38.6721 53.7115 40.9598 55.3459L41.5411 54.5323C39.0661 52.7641 35.7299 51.5833 31.2506 51.5833V52.5833ZM15.1364 67.8017C15.2896 66.0432 15.8828 62.2232 18.1535 58.8553C20.4033 55.5183 24.3252 52.5833 31.2506 52.5833V51.5833C23.982 51.5833 19.754 54.6925 17.3243 58.2963C14.9154 61.8692 14.2995 65.8867 14.1402 67.7149L15.1364 67.8017ZM15.5839 68.25C15.2979 68.25 15.1163 68.0335 15.1364 67.8017L14.1402 67.7149C14.0646 68.5836 14.7654 69.25 15.5839 69.25V68.25ZM36.4171 68.25H15.5839V69.25H36.4171V68.25ZM36.4171 68.25C36.1319 68.25 35.9452 68.0329 35.9633 67.7959L34.9662 67.7199C34.9003 68.5843 35.5977 69.25 36.4171 69.25V68.25ZM35.9633 67.7959C36.0558 66.5822 36.3322 64.3745 37.1538 62.0094C37.976 59.6427 39.333 57.1501 41.5667 55.3264L40.9342 54.5518C38.5093 56.5317 37.068 59.2092 36.2092 61.6813C35.3498 64.1551 35.0626 66.455 34.9662 67.7199L35.9633 67.7959Z" fill="white"/>
<path d="M49.9993 52.0833C62.4187 52.0833 64.2616 64.1706 64.535 67.7579C64.577 68.3086 64.135 68.75 63.5827 68.75H36.416C35.8637 68.75 35.4217 68.3086 35.4637 67.7579C35.7371 64.1706 37.58 52.0833 49.9993 52.0833Z" stroke="white" stroke-linecap="round"/>
<path d="M77.084 89.5833H88.084C88.9124 89.5833 89.584 88.9117 89.584 88.0833V77.0833" stroke="white" stroke-linecap="round"/>
<path d="M77.084 10.4167H88.084C88.9124 10.4167 89.584 11.0883 89.584 11.9167V22.9167" stroke="white" stroke-linecap="round"/>
<path d="M22.916 89.5833H11.916C11.0876 89.5833 10.416 88.9117 10.416 88.0833V77.0833" stroke="white" stroke-linecap="round"/>
<path d="M22.916 10.4167H11.916C11.0876 10.4167 10.416 11.0883 10.416 11.9167V22.9167" stroke="white" stroke-linecap="round"/>
</svg>
