<svg width="100" height="100" viewBox="0 0 100 100" fill="none" xmlns="http://www.w3.org/2000/svg">
<path d="M36.2178 49.6642L45.9221 55.164L36.6826 71.4671L36.6565 71.5133C36.4596 71.8605 36.2724 72.1908 36.1595 72.4515C36.1025 72.5833 36.0243 72.7847 36.0027 73.0114C35.9786 73.2626 36.018 73.6797 36.3747 74.0004C36.7313 74.3211 37.1503 74.3162 37.3976 74.2657C37.6207 74.2202 37.8127 74.1211 37.9377 74.0504C38.185 73.9106 38.4936 73.6895 38.818 73.457L38.8612 73.4261L64.0464 55.3846L64.1031 55.344C64.6266 54.9691 65.1074 54.6248 65.4438 54.2992C65.8047 53.9501 66.1884 53.4452 66.1511 52.7414C66.1137 52.0376 65.6788 51.5761 65.283 51.2671C64.9139 50.979 64.3995 50.6876 63.8392 50.3701L63.7785 50.3358L54.0742 44.836L63.3137 28.5329L63.3398 28.4867C63.5367 28.1395 63.7239 27.8093 63.8368 27.5485C63.8938 27.4167 63.972 27.2153 63.9936 26.9886C64.0177 26.7374 63.9783 26.3203 63.6216 25.9996C63.265 25.6789 62.846 25.6838 62.5987 25.7343C62.3756 25.7799 62.1836 25.8789 62.0586 25.9496C61.8113 26.0894 61.5027 26.3105 61.1783 26.5429L61.1351 26.5739L35.9499 44.6154L35.8932 44.656C35.3697 45.0309 34.8889 45.3752 34.5525 45.7008C34.1916 46.0499 33.8079 46.5548 33.8452 47.2586C33.8826 47.9624 34.3175 48.4239 34.7133 48.7329C35.0824 49.021 35.5968 49.3124 36.1571 49.6299L36.2178 49.6642ZM36.9106 72.3318C36.9107 72.3318 36.9116 72.3313 36.9136 72.3305C36.9116 72.3314 36.9106 72.3318 36.9106 72.3318ZM37.9772 73.2909C37.9772 73.2909 37.9775 73.29 37.9782 73.2881C37.9776 73.2899 37.9773 73.2909 37.9772 73.2909ZM63.0857 27.6682C63.0857 27.6682 63.0847 27.6687 63.0829 27.6694C63.0848 27.6686 63.0857 27.6682 63.0857 27.6682ZM62.0191 26.7091C62.0191 26.7091 62.0188 26.71 62.0181 26.712C62.0187 26.7101 62.019 26.7091 62.0191 26.7091Z" stroke="white" stroke-width="2"/>
</svg>
